<?xml version="1.0" encoding="utf-8"?>
<!-- Generator: Adobe Illustrator 24.1.1, SVG Export Plug-In . SVG Version: 6.00 Build 0)  -->
<svg version="1.1" xmlns="http://www.w3.org/2000/svg" xmlns:xlink="http://www.w3.org/1999/xlink" x="0px" y="0px"
	 viewBox="0 0 500 500" style="enable-background:new 0 0 500 500;" xml:space="preserve">
<style type="text/css">
	.st0{fill:#7AAFC2;}
	.st1{fill:#618CB2;}
	.st2{opacity:0.25;fill:#3E3D3C;}
	.st3{fill:#35383B;}
	.st4{fill:#41434B;}
	.st5{fill:#DADADA;}
	.st6{fill:#FEFEFE;}
	.st7{fill:#373F3F;}
	.st8{fill:#8C5933;}
	.st9{fill:#506268;}
	.st10{fill:#66A5D9;}
	.st11{fill:#83CEE5;}
	.st12{fill:#723F34;}
	.st13{fill:#EBCD9A;}
	.st14{fill:#833A43;}
	.st15{fill:#D4936F;}
	.st16{fill:#D9DDE3;}
	.st17{fill:#1D3356;}
	.st18{fill:#683311;}
	.st19{fill:#2E5087;}
	.st20{fill:#322A31;}
	.st21{fill:#FDFFFF;}
	.st22{fill:#443B43;}
	.st23{fill:#EBAB78;}
	.st24{fill:#EBBA87;}
	.st25{fill:#3E434C;}
	.st26{fill:#E17E55;}
	.st27{fill:#EFC988;}
	.st28{fill:#CA934E;}
	.st29{fill:#644425;}
	.st30{fill:#714F32;}
	.st31{fill:#3E3D3C;}
	.st32{fill:#E9B27D;}
	.st33{fill:#EEBC8C;}
	.st34{fill:#4D4D4D;}
	.st35{fill:#B05A28;}
	.st36{fill:#734A28;}
	.st37{fill:#4C392F;}
	.st38{fill:#5E3F26;}
	.st39{fill:#3B2C28;}
	.st40{fill:#714D31;}
	.st41{fill:#D9D9D9;}
	.st42{fill:none;stroke:#FEFEFE;stroke-linecap:round;stroke-linejoin:round;stroke-miterlimit:10;stroke-dasharray:4;}
	.st43{fill:none;stroke:#FEFEFE;stroke-linecap:round;stroke-linejoin:round;stroke-miterlimit:10;}
	.st44{fill:none;stroke:#FFFFFF;stroke-linecap:round;stroke-linejoin:round;stroke-miterlimit:10;}
	.st45{fill:none;stroke:#FFFFFF;stroke-linecap:round;stroke-linejoin:round;}
	.st46{fill:#FFFFFF;}
	.st47{fill:none;stroke:#FFFFFF;stroke-miterlimit:10;}
</style>
<g id="BACKGROUND">
	<rect class="st0" width="500" height="500"/>
	<path class="st1" d="M500,382.58c-78-7.93-162.19-9.26-250-9.26s-172,1.33-250,9.26V500h500V382.58z"/>
</g>
<g id="OBJECTS">
	<g>
		<path class="st2" d="M108.55,416.84c0-2.13-18.16-3.85-40.57-3.85c-22.41,0-40.57,1.72-40.57,3.85c0,2.13,18.16,3.85,40.57,3.85
			C90.39,420.69,108.55,418.97,108.55,416.84z"/>
		<path class="st2" d="M405.58,418.57c0-1.67-19.44-3.03-43.43-3.03s-43.42,1.36-43.42,3.03s19.44,3.03,43.42,3.03
			S405.58,420.24,405.58,418.57z"/>
		<path class="st2" d="M196.51,415.11c0-2.13-14.46-3.85-32.3-3.85c-17.84,0-32.3,1.72-32.3,3.85c0,2.13,14.46,3.85,32.3,3.85
			C182.05,418.96,196.51,417.24,196.51,415.11z"/>
		<path class="st2" d="M271.33,415.11c0-2.13-13.96-3.85-31.19-3.85c-17.22,0-31.19,1.72-31.19,3.85c0,2.13,13.96,3.85,31.19,3.85
			C257.37,418.96,271.33,417.24,271.33,415.11z"/>
		<ellipse class="st2" cx="443.74" cy="417.17" rx="28.85" ry="4.11"/>
		<g>
			<path class="st3" d="M223.58,372.38h35.72l4.47-42.66c1.39-13.25-9-24.79-22.33-24.79l0,0c-13.33,0-23.72,11.54-22.33,24.79
				L223.58,372.38z"/>
			<path class="st4" d="M218.72,375.84h38.94c1.91,0,3.46-1.55,3.46-3.46l0,0c0-1.91-1.55-3.46-3.46-3.46h-38.94
				c-1.91,0-3.46,1.55-3.46,3.46l0,0C215.26,374.29,216.81,375.84,218.72,375.84z"/>
			
				<rect x="236.35" y="375.84" transform="matrix(-1 -1.224647e-16 1.224647e-16 -1 476.3723 791.6721)" class="st5" width="3.68" height="40"/>
			<polygon class="st6" points="236.35,375.84 240.03,375.84 230.51,415.84 226.83,415.84 			"/>
			<polygon class="st6" points="240.03,375.84 236.35,375.84 245.86,415.84 249.54,415.84 			"/>
			
				<rect x="232.87" y="375.84" transform="matrix(-1 -1.224647e-16 1.224647e-16 -1 476.3723 756.131)" class="st5" width="10.63" height="4.46"/>
			<path class="st4" d="M224.83,416.44h26.71c0.95,0,1.73-0.77,1.73-1.73l0,0c0-0.95-0.77-1.73-1.73-1.73h-26.71
				c-0.95,0-1.73,0.77-1.73,1.73l0,0C223.1,415.67,223.88,416.44,224.83,416.44z"/>
		</g>
		<g>
			<g>
				<polygon class="st7" points="220.93,341.46 255.46,341.46 257.48,363.38 222.95,363.38 				"/>
				<path class="st7" d="M223.07,357.83h28.86c3.06,0,5.55,2.48,5.55,5.55l0,0c0,3.06-2.48,5.55-5.55,5.55h-28.86
					c-3.06,0-5.55-2.48-5.55-5.55l0,0C217.52,360.31,220.01,357.83,223.07,357.83z"/>
				<path class="st8" d="M224.6,416.43L224.6,416.43c-2.35-1.46-3.07-4.54-1.61-6.89l5.95-9.57c1.46-2.35,4.54-3.07,6.89-1.61l0,0
					c2.35,1.46,3.07,4.54,1.61,6.89l-5.95,9.57C230.03,417.17,226.94,417.89,224.6,416.43z"/>
				<path class="st9" d="M232.09,404.38L232.09,404.38c-2.69,0.63-5.38-1.04-6.01-3.73l-8.24-35.29c-0.63-2.69,1.04-5.38,3.73-6.01
					l0,0c2.69-0.63,5.38,1.04,6.01,3.73l8.24,35.29C236.45,401.06,234.78,403.75,232.09,404.38z"/>
				<path class="st8" d="M259.42,415.94L259.42,415.94c2.05-1.86,2.2-5.02,0.35-7.06l-7.57-8.34c-1.86-2.05-5.02-2.2-7.06-0.35l0,0
					c-2.05,1.86-2.2,5.02-0.34,7.06l7.57,8.34C254.22,417.64,257.38,417.79,259.42,415.94z"/>
				<path class="st9" d="M249.89,405.42L249.89,405.42c2.76,0.13,5.1-1.99,5.24-4.75l1.77-36.19c0.13-2.76-1.99-5.1-4.75-5.24l0,0
					c-2.76-0.13-5.1,1.99-5.24,4.75l-1.77,36.19C245,402.95,247.13,405.29,249.89,405.42z"/>
			</g>
			<g>
				<path class="st10" d="M217.83,331.83L217.83,331.83c2.72,0.47,5.31-1.36,5.78-4.08l3.64-21.17c0.47-2.72-1.36-5.31-4.08-5.78
					l0,0c-2.72-0.47-5.31,1.36-5.78,4.08l-3.64,21.17C213.28,328.77,215.11,331.36,217.83,331.83z"/>
				<path class="st10" d="M258.35,331.83L258.35,331.83c-2.72,0.47-5.31-1.36-5.78-4.08l-3.65-21.17c-0.47-2.72,1.36-5.31,4.08-5.78
					l0,0c2.72-0.47,5.31,1.36,5.78,4.08l3.65,21.17C262.9,328.77,261.07,331.36,258.35,331.83z"/>
				<rect x="223.17" y="300.73" class="st10" width="29.84" height="43.92"/>
				<path class="st11" d="M242.02,344.91L242.02,344.91c-2.1-1.8-2.33-4.96-0.54-7.05l12.1-14.09c1.8-2.1,4.96-2.33,7.05-0.54l0,0
					c2.1,1.8,2.33,4.96,0.54,7.05l-12.1,14.09C247.27,346.47,244.11,346.71,242.02,344.91z"/>
				<path class="st11" d="M234.16,344.91L234.16,344.91c2.1-1.8,2.33-4.96,0.54-7.05l-12.1-14.09c-1.8-2.1-4.96-2.33-7.05-0.54l0,0
					c-2.1,1.8-2.33,4.96-0.54,7.05l12.1,14.09C228.91,346.47,232.06,346.71,234.16,344.91z"/>
				<g>
					<path class="st12" d="M240.39,265.43L240.39,265.43c-5.44,0-9.85,4.41-9.85,9.85v12.27c0,5.44,4.41,9.85,9.85,9.85l0,0
						c5.44,0,9.85-4.41,9.85-9.85v-12.27C250.24,269.84,245.83,265.43,240.39,265.43z"/>
					<path class="st13" d="M238.09,308.43L238.09,308.43c2.76,0,5-2.24,5-5v-11.04h-10v11.04
						C233.09,306.19,235.33,308.43,238.09,308.43z"/>
					<path class="st13" d="M232.6,269.03L232.6,269.03c5.79,0,10.49,4.7,10.49,10.49v19.53H232.6c-5.26,0-9.52-4.26-9.52-9.52
						v-10.98C223.08,273.29,227.34,269.03,232.6,269.03z"/>
					<path class="st13" d="M239.71,285.83c0-1.87,1.51-3.38,3.38-3.38c1.87,0,3.38,1.51,3.38,3.38c0,1.87-1.51,3.38-3.38,3.38
						C241.22,289.21,239.71,287.7,239.71,285.83z"/>
					<path class="st14" d="M233.07,282.45h4.18c0.38,0,0.68-0.31,0.68-0.68l0,0c0-0.38-0.31-0.68-0.68-0.68h-4.18
						c-0.38,0-0.68,0.31-0.68,0.68l0,0C232.38,282.15,232.69,282.45,233.07,282.45z"/>
					<path class="st14" d="M227.09,291.49h6.89c0.62,0,1.13-0.51,1.13-1.13l0,0c0-0.62-0.51-1.13-1.13-1.13h-6.89
						c-0.62,0-1.13,0.51-1.13,1.13l0,0C225.96,290.99,226.47,291.49,227.09,291.49z"/>
					<path class="st14" d="M225.45,282.45h4.18c0.38,0,0.68-0.31,0.68-0.68l0,0c0-0.38-0.31-0.68-0.68-0.68h-4.18
						c-0.38,0-0.68,0.31-0.68,0.68l0,0C224.77,282.15,225.07,282.45,225.45,282.45z"/>
					<path class="st15" d="M230.69,295.9L230.69,295.9c1.74,0,3.15-1.41,3.15-3.15v-1.26h-6.3v1.26
						C227.54,294.49,228.95,295.9,230.69,295.9z"/>
					<path class="st3" d="M233.35,284.49c0,0.65,0.52,1.17,1.17,1.17c0.65,0,1.17-0.52,1.17-1.17c0-0.65-0.52-1.17-1.17-1.17
						C233.87,283.32,233.35,283.84,233.35,284.49z"/>
					<circle class="st3" cx="226.9" cy="284.49" r="1.17"/>
					<path class="st12" d="M248.44,274.23c0-2.68-2.17-4.85-4.85-4.85c-2.68,0-4.85,2.17-4.85,4.85c0,2.68,2.17,4.85,4.85,4.85
						C246.27,279.08,248.44,276.91,248.44,274.23z"/>
					<path class="st14" d="M224.75,265.43h13.99c2.43,0,4.4,1.97,4.4,4.4l0,0c0,2.43-1.97,4.4-4.4,4.4h-13.99
						c-2.43,0-4.4-1.97-4.4-4.4l0,0C220.35,267.4,222.32,265.43,224.75,265.43z"/>
					<path class="st14" d="M222.23,263.8L222.23,263.8c-1.04,0-1.88,0.84-1.88,1.88v4.14h3.77v-4.14
						C224.12,264.65,223.27,263.8,222.23,263.8z"/>
					<path class="st14" d="M226,263.8L226,263.8c-1.04,0-1.88,0.84-1.88,1.88v4.14h3.77v-4.14C227.89,264.65,227.04,263.8,226,263.8
						z"/>
				</g>
				<path class="st11" d="M262.43,326.05l-3.65-21.17c-0.47-2.72-3.05-4.55-5.78-4.08l5.34,31.03l0,0
					C261.07,331.36,262.9,328.77,262.43,326.05z"/>
				<path class="st11" d="M213.75,326.06l3.65-21.17c0.47-2.72,3.05-4.55,5.78-4.08l-5.34,31.03v0
					C215.1,331.36,213.28,328.78,213.75,326.06z"/>
				<g>
					<path class="st6" d="M256.37,344.65h-36.56l-1.33-20.57c-0.11-1.63,1.19-3.01,2.82-3.01h33.58c1.64,0,2.93,1.38,2.82,3.01
						L256.37,344.65z"/>
					<rect x="219.81" y="344.65" class="st16" width="36.56" height="2.47"/>
					<path class="st16" d="M241.04,332.86c0-1.63-1.32-2.96-2.96-2.96c-1.63,0-2.96,1.32-2.96,2.96s1.32,2.96,2.96,2.96
						C239.72,335.81,241.04,334.49,241.04,332.86z"/>
				</g>
				<g>
					<polygon class="st11" points="241.1,310.33 238.17,308.43 243.09,300.72 247.25,300.73 					"/>
					<polygon class="st11" points="235.24,310.33 238.17,308.43 233.24,300.72 229.08,300.73 					"/>
				</g>
			</g>
		</g>
		<g>
			<path class="st3" d="M180.21,372.38H144.5l-4.47-42.66c-1.39-13.25,9-24.79,22.33-24.79h0c13.33,0,23.72,11.54,22.33,24.79
				L180.21,372.38z"/>
			<path class="st4" d="M185.08,375.84h-38.94c-1.91,0-3.46-1.55-3.46-3.46l0,0c0-1.91,1.55-3.46,3.46-3.46h38.94
				c1.91,0,3.46,1.55,3.46,3.46l0,0C188.53,374.29,186.99,375.84,185.08,375.84z"/>
			<rect x="163.77" y="375.84" class="st5" width="3.68" height="40"/>
			<polygon class="st6" points="167.45,375.84 163.77,375.84 173.28,415.84 176.96,415.84 			"/>
			<polygon class="st6" points="163.77,375.84 167.45,375.84 157.93,415.84 154.25,415.84 			"/>
			<rect x="160.29" y="375.84" class="st5" width="10.63" height="4.46"/>
			<path class="st4" d="M178.96,416.44h-26.71c-0.95,0-1.73-0.77-1.73-1.73l0,0c0-0.95,0.77-1.73,1.73-1.73h26.71
				c0.95,0,1.73,0.77,1.73,1.73l0,0C180.69,415.67,179.92,416.44,178.96,416.44z"/>
		</g>
		<g>
			<g>
				<polygon class="st17" points="181.7,341.59 147.17,341.59 145.15,363.5 179.69,363.5 				"/>
				<path class="st17" d="M179.56,357.95H150.7c-3.06,0-5.55,2.48-5.55,5.55l0,0c0,3.06,2.48,5.55,5.55,5.55h28.86
					c3.06,0,5.55-2.48,5.55-5.55l0,0C185.11,360.44,182.63,357.95,179.56,357.95z"/>
				<path class="st18" d="M170.51,415.78L170.51,415.78c2.53-1.11,3.68-4.06,2.57-6.59l-4.52-10.32c-1.11-2.53-4.06-3.68-6.59-2.57
					l0,0c-2.53,1.11-3.68,4.06-2.57,6.59l4.52,10.32C165.03,415.74,167.98,416.89,170.51,415.78z"/>
				<path class="st17" d="M164.8,402.79L164.8,402.79c2.57,1,5.47-0.27,6.48-2.84l13.18-33.76c1-2.57-0.27-5.47-2.84-6.48l0,0
					c-2.57-1-5.47,0.27-6.48,2.84l-13.18,33.76C160.96,398.88,162.23,401.78,164.8,402.79z"/>
				<path class="st8" d="M160.15,415.78L160.15,415.78c-2.53-1.11-3.68-4.06-2.57-6.59l4.52-10.32c1.11-2.53,4.06-3.68,6.59-2.57
					l0,0c2.53,1.11,3.68,4.06,2.57,6.59l-4.52,10.32C165.63,415.74,162.68,416.89,160.15,415.78z"/>
				<path class="st19" d="M165.85,402.79L165.85,402.79c-2.57,1-5.47-0.27-6.48-2.84l-13.18-33.76c-1-2.57,0.27-5.47,2.84-6.48l0,0
					c2.57-1,5.47,0.27,6.48,2.84l13.18,33.76C169.7,398.88,168.43,401.78,165.85,402.79z"/>
			</g>
			<g>
				<polygon class="st20" points="181.1,352.41 152.51,352.41 155.32,299.06 183.91,299.06 				"/>
				<path class="st21" d="M176.49,302.39c0-3.31-2.68-5.99-5.99-5.99c-3.31,0-5.99,2.68-5.99,5.99c0,3.31,2.68,5.99,5.99,5.99
					C173.81,308.37,176.49,305.69,176.49,302.39z"/>
				<path class="st22" d="M152.14,346.94L152.14,346.94c-2.9,0-5.19-2.46-4.97-5.35l2.81-37.9c0.19-2.6,2.36-4.62,4.97-4.62h0
					c2.9,0,5.19,2.46,4.97,5.35l-2.81,37.9C156.92,344.93,154.76,346.94,152.14,346.94z"/>
				<path class="st22" d="M147.17,341.94L147.17,341.94c0-2.76,2.24-5,5-5h24.01v10h-24.01
					C149.41,346.94,147.17,344.71,147.17,341.94z"/>
				<path class="st20" d="M188.3,338.88L188.3,338.88c-2.45,0-4.54-1.8-4.89-4.23l-4.4-29.92c-0.44-2.99,1.88-5.67,4.89-5.67l0,0
					c2.45,0,4.54,1.8,4.89,4.23l4.4,29.92C193.64,336.2,191.32,338.88,188.3,338.88z"/>
				<g>
					
						<rect x="203.13" y="311.24" transform="matrix(0.7071 0.7071 -0.7071 0.7071 283.6271 -53.6084)" class="st23" width="6.78" height="8.64"/>
					<path class="st23" d="M205.62,311.67l-0.97-0.97c-0.53-0.53-0.53-1.4,0-1.94l2.51-2.51c0.53-0.53,1.4-0.53,1.94,0l0,0
						c0.53,0.53,0.53,1.4,0,1.94L205.62,311.67z"/>
					<path class="st23" d="M208.47,317.18l-4.18-4.18l5.78-5.78l4.18,4.18c1.6,1.6,1.6,4.19,0,5.78l0,0
						C212.65,318.78,210.07,318.78,208.47,317.18z"/>
					<path class="st24" d="M211.26,311.84L211.26,311.84c-0.53-0.53-0.53-1.4,0-1.94l1.49-1.49c0.53-0.53,1.4-0.53,1.94,0l0,0
						c0.53,0.53,0.53,1.4,0,1.94l-1.49,1.49C212.66,312.37,211.8,312.37,211.26,311.84z"/>
					<path class="st24" d="M209.33,309.9L209.33,309.9c-0.53-0.53-0.53-1.4,0-1.94l1.49-1.49c0.53-0.53,1.4-0.53,1.94,0l0,0
						c0.53,0.53,0.53,1.4,0,1.94l-1.49,1.49C210.73,310.44,209.86,310.44,209.33,309.9z"/>
					<path class="st24" d="M213.2,313.77L213.2,313.77c-0.53-0.53-0.53-1.4,0-1.94l1.49-1.49c0.53-0.53,1.4-0.53,1.94,0l0,0
						c0.53,0.53,0.53,1.4,0,1.94l-1.49,1.49C214.6,314.31,213.73,314.31,213.2,313.77z"/>
					<path class="st24" d="M215.13,315.71L215.13,315.71c-0.53-0.53-0.53-1.4,0-1.94l1.49-1.49c0.53-0.53,1.4-0.53,1.94,0l0,0
						c0.53,0.53,0.53,1.4,0,1.94l-1.49,1.49C216.54,316.25,215.67,316.25,215.13,315.71z"/>
				</g>
				<path class="st20" d="M185.15,336.94L185.15,336.94c-1.95-1.95-1.95-5.12,0-7.07l16.98-16.98l7.07,7.07l-16.98,16.98
					C190.26,338.9,187.1,338.9,185.15,336.94z"/>
				<g>
					
						<rect x="177.11" y="337.16" transform="matrix(-1.836970e-16 1 -1 -1.836970e-16 521.9813 160.9703)" class="st23" width="6.78" height="8.64"/>
					<path class="st23" d="M182.62,338.08v-1.37c0-0.76,0.61-1.37,1.37-1.37h3.55c0.76,0,1.37,0.61,1.37,1.37l0,0
						c0,0.76-0.61,1.37-1.37,1.37H182.62z"/>
					<path class="st23" d="M180.74,344v-5.91h8.18V344c0,2.26-1.83,4.09-4.09,4.09l0,0C182.57,348.08,180.74,346.25,180.74,344z"/>
					<path class="st23" d="M186.49,338.5L186.49,338.5c0-0.76,0.61-1.37,1.37-1.37h2.11c0.76,0,1.37,0.61,1.37,1.37l0,0
						c0,0.76-0.61,1.37-1.37,1.37h-2.11C187.1,339.87,186.49,339.26,186.49,338.5z"/>
					<path class="st23" d="M186.49,341.24L186.49,341.24c0-0.76,0.61-1.37,1.37-1.37h2.11c0.76,0,1.37,0.61,1.37,1.37l0,0
						c0,0.76-0.61,1.37-1.37,1.37h-2.11C187.1,342.61,186.49,342,186.49,341.24z"/>
					<path class="st23" d="M186.49,343.98L186.49,343.98c0-0.76,0.61-1.37,1.37-1.37h2.11c0.76,0,1.37,0.61,1.37,1.37l0,0
						c0,0.76-0.61,1.37-1.37,1.37h-2.11C187.1,345.35,186.49,344.73,186.49,343.98z"/>
					<path class="st23" d="M184.82,346.72L184.82,346.72c0-0.76,0.61-1.37,1.37-1.37h3.78c0.76,0,1.37,0.61,1.37,1.37l0,0
						c0,0.76-0.61,1.37-1.37,1.37h-3.78C185.44,348.08,184.82,347.47,184.82,346.72z"/>
				</g>
				<g>
					<path class="st3" d="M185.07,272.09h-12.91c-1.84,0-3.33,1.49-3.33,3.33l0,0c0,1.84,1.49,3.33,3.33,3.33h12.91
						c1.84,0,3.33-1.49,3.33-3.33l0,0C188.4,273.58,186.91,272.09,185.07,272.09z"/>
					<path class="st25" d="M168.2,265.43h9.85v23.79c0,5.44-4.41,9.85-9.85,9.85l0,0c-5.44,0-9.85-4.41-9.85-9.85v-13.93
						C158.35,269.84,162.76,265.43,168.2,265.43z"/>
					<path class="st24" d="M170.5,307.39L170.5,307.39c-2.76,0-5-2.24-5-5v-8.33h10v8.33C175.5,305.15,173.26,307.39,170.5,307.39z"
						/>
					<path class="st24" d="M175.99,272.09H165.5v25.73h10.49c5.26,0,9.52-4.26,9.52-9.52v-6.7
						C185.51,276.35,181.25,272.09,175.99,272.09z"/>
					<circle class="st24" cx="165.5" cy="288.36" r="3.38"/>
					<path class="st25" d="M181.74,268.76h-12.91c-1.84,0-3.33,1.49-3.33,3.33l0,0c0,1.84,1.49,3.33,3.33,3.33h12.91
						c1.84,0,3.33-1.49,3.33-3.33l0,0C185.07,270.25,183.58,268.76,181.74,268.76z"/>
					<path class="st25" d="M185.07,265.43h-12.91c-1.84,0-3.33,1.49-3.33,3.33l0,0c0,1.84,1.49,3.33,3.33,3.33h12.91
						c1.84,0,3.33-1.49,3.33-3.33l0,0C188.4,266.92,186.91,265.43,185.07,265.43z"/>
					<path class="st25" d="M176.65,272.09H165.5c-1.84,0-3.33,1.49-3.33,3.33l0,0c0,1.84,1.49,3.33,3.33,3.33h11.15
						c1.84,0,3.33-1.49,3.33-3.33l0,0C179.98,273.58,178.49,272.09,176.65,272.09z"/>
					<path class="st25" d="M167.01,275.42h-1.69c-1.84,0-3.33,1.49-3.33,3.33l0,0c0,1.84,1.49,3.33,3.33,3.33h1.69
						c1.84,0,3.33-1.49,3.33-3.33l0,0C170.34,276.91,168.85,275.42,167.01,275.42z"/>
					<path class="st25" d="M175.52,284.12h-4.18c-0.38,0-0.68-0.31-0.68-0.68l0,0c0-0.38,0.31-0.68,0.68-0.68h4.18
						c0.38,0,0.68,0.31,0.68,0.68l0,0C176.21,283.81,175.9,284.12,175.52,284.12z"/>
					<path class="st25" d="M183.14,284.12h-4.18c-0.38,0-0.68-0.31-0.68-0.68l0,0c0-0.38,0.31-0.68,0.68-0.68h4.18
						c0.38,0,0.68,0.31,0.68,0.68l0,0C183.82,283.81,183.52,284.12,183.14,284.12z"/>
					<path class="st26" d="M177.9,294.65L177.9,294.65c-1.74,0-3.15-1.41-3.15-3.15v-1.26h6.3v1.26
						C181.05,293.24,179.64,294.65,177.9,294.65z"/>
					<circle class="st25" cx="174.07" cy="286.15" r="1.17"/>
					<path class="st25" d="M182.86,286.15c0,0.65-0.52,1.17-1.17,1.17c-0.65,0-1.17-0.52-1.17-1.17c0-0.65,0.52-1.17,1.17-1.17
						C182.33,284.98,182.86,285.51,182.86,286.15z"/>
				</g>
			</g>
		</g>
		<g>
			<path class="st6" d="M126.15,418.56L126.15,418.56c-1.19,0.09-2.25-0.91-2.31-2.25c0.87-25.28,8.14-42.97,25.51-61.58
				c0.99-0.9,2.45-0.86,3.22,0.05l0,0c0.78,0.91,0.62,2.31-0.31,3.16c-16.4,17.58-23.27,34.29-24.1,58.17
				C128.23,417.37,127.34,418.47,126.15,418.56z"/>
			<path class="st6" d="M279.47,418.56L279.47,418.56c1.19,0.09,2.25-0.91,2.31-2.25c-0.87-25.28-8.14-42.97-25.51-61.58
				c-0.99-0.9-2.45-0.86-3.22,0.05l0,0c-0.78,0.91-0.62,2.31,0.31,3.16c16.4,17.58,23.27,34.29,24.1,58.17
				C277.4,417.37,278.28,418.47,279.47,418.56z"/>
			<path class="st5" d="M152.86,355.24c-1.47,0.15-2.95,0.31-4.43,0.48c-1.97,2.15-3.81,4.3-5.52,6.45c2.07-0.26,4.14-0.5,6.2-0.73
				c1.01-1.16,2.05-2.33,3.14-3.5C153.05,357.22,153.27,356.12,152.86,355.24z"/>
			<path class="st5" d="M257.19,355.72c-1.48-0.17-2.95-0.33-4.43-0.48c-0.41,0.88-0.19,1.98,0.6,2.69c1.09,1.17,2.13,2.33,3.14,3.5
				c2.07,0.23,4.13,0.48,6.2,0.73C261,360.02,259.16,357.88,257.19,355.72z"/>
			<path class="st6" d="M278.64,361.21c-50.85-7.98-100.81-7.98-151.65,0c-0.39-2.27-0.58-3.4-0.97-5.67
				c51.5-8.08,102.09-8.08,153.6,0C279.22,357.81,279.03,358.94,278.64,361.21z"/>
			<path class="st5" d="M279.12,358.4c0.15-0.86,0.29-1.71,0.49-2.86c-51.51-8.08-102.1-8.08-153.6,0c0.2,1.14,0.34,2,0.49,2.86
				C177.67,350.42,227.95,350.41,279.12,358.4z"/>
			<path class="st27" d="M307.36,355.55c-69.75-15.24-139.34-15.24-209.1,0c-1.57,0.37-2.55,1.9-2.19,3.41l0,0
				c0.36,1.51,1.92,2.44,3.47,2.07c68.98-15.02,137.55-15.02,206.54,0c1.55,0.36,3.11-0.56,3.47-2.07l0,0
				C309.91,357.45,308.93,355.92,307.36,355.55z"/>
			<path class="st28" d="M96.14,359.15c0.45,1.39,1.92,2.23,3.4,1.88c68.98-15.02,137.55-15.02,206.54,0
				c1.49,0.35,2.96-0.49,3.4-1.88C238.33,345.23,167.3,345.23,96.14,359.15z"/>
		</g>
		<g>
			<path class="st4" d="M38.04,307.05L38.04,307.05c-2.58,0-4.59,2.24-4.32,4.8L40.06,371c0.24,2.21,2.1,3.88,4.32,3.88l0,0
				c2.58,0,4.59-2.24,4.32-4.8l-6.34-59.15C42.12,308.72,40.26,307.05,38.04,307.05z"/>
			<path class="st4" d="M80.86,377.96H41.92c-1.91,0-3.46-1.55-3.46-3.46l0,0c0-1.91,1.55-3.46,3.46-3.46h38.94
				c1.91,0,3.46,1.55,3.46,3.46l0,0C84.32,376.41,82.77,377.96,80.86,377.96z"/>
			<rect x="59.55" y="377.96" class="st5" width="3.68" height="40"/>
			<polygon class="st6" points="63.23,377.96 59.55,377.96 69.06,417.96 72.74,417.96 			"/>
			<polygon class="st6" points="59.55,377.96 63.23,377.96 53.71,417.96 50.03,417.96 			"/>
			<rect x="56.07" y="377.96" class="st5" width="10.63" height="4.46"/>
			<path class="st4" d="M74.74,418.57H48.03c-0.95,0-1.73-0.77-1.73-1.73l0,0c0-0.95,0.77-1.73,1.73-1.73h26.71
				c0.95,0,1.73,0.77,1.73,1.73l0,0C76.47,417.79,75.7,418.57,74.74,418.57z"/>
		</g>
		<g>
			<path class="st4" d="M323.39,307.05L323.39,307.05c2.58,0,4.59,2.24,4.32,4.8L321.37,371c-0.24,2.21-2.1,3.88-4.32,3.88l0,0
				c-2.58,0-4.59-2.24-4.32-4.8l6.34-59.15C319.31,308.72,321.17,307.05,323.39,307.05z"/>
			<path class="st4" d="M280.57,377.96h38.94c1.91,0,3.46-1.55,3.46-3.46l0,0c0-1.91-1.55-3.46-3.46-3.46h-38.94
				c-1.91,0-3.46,1.55-3.46,3.46l0,0C277.12,376.41,278.66,377.96,280.57,377.96z"/>
			
				<rect x="298.2" y="377.96" transform="matrix(-1 -1.224647e-16 1.224647e-16 -1 600.0825 795.9182)" class="st5" width="3.68" height="40"/>
			<polygon class="st6" points="298.2,377.96 301.88,377.96 292.37,417.96 288.69,417.96 			"/>
			<polygon class="st6" points="301.88,377.96 298.2,377.96 307.72,417.96 311.4,417.96 			"/>
			
				<rect x="294.72" y="377.96" transform="matrix(-1 -1.224647e-16 1.224647e-16 -1 600.0825 760.3772)" class="st5" width="10.63" height="4.46"/>
			<path class="st4" d="M286.69,418.57h26.71c0.95,0,1.73-0.77,1.73-1.73l0,0c0-0.95-0.77-1.73-1.73-1.73h-26.71
				c-0.95,0-1.73,0.77-1.73,1.73l0,0C284.96,417.79,285.73,418.57,286.69,418.57z"/>
		</g>
		<g>
			<g>
				<path class="st3" d="M132.48,397.71L132.48,397.71c0.17-2.76-1.92-5.13-4.68-5.3l-11.24-0.7c-2.76-0.17-5.13,1.92-5.3,4.68l0,0
					c-0.17,2.76,1.92,5.13,4.68,5.3l11.24,0.7C129.93,402.56,132.3,400.46,132.48,397.71z"/>
				<path class="st29" d="M118.31,398.79L118.31,398.79c2.07-1.83,2.27-4.99,0.44-7.06l-23.97-27.18c-1.83-2.07-4.99-2.27-7.06-0.44
					h0c-2.07,1.83-2.27,4.99-0.44,7.06l23.97,27.18C113.08,400.42,116.24,400.62,118.31,398.79z"/>
				<polygon class="st30" points="79.13,343.71 50.97,343.71 48.95,365.62 77.12,365.62 				"/>
				<path class="st30" d="M93.9,360.08H54.5c-3.06,0-5.55,2.48-5.55,5.55l0,0c0,3.06,2.48,5.55,5.55,5.55h39.4
					c3.06,0,5.55-2.48,5.55-5.55l0,0C99.45,362.56,96.97,360.08,93.9,360.08z"/>
				<path class="st3" d="M85.18,417.91L85.18,417.91c2.53-1.11,3.68-4.06,2.57-6.59L83.23,401c-1.11-2.53-4.06-3.68-6.59-2.57l0,0
					c-2.53,1.11-3.68,4.06-2.57,6.59l4.52,10.32C79.7,417.87,82.65,419.02,85.18,417.91z"/>
				<path class="st30" d="M79.48,404.91L79.48,404.91c2.57,1,5.47-0.27,6.48-2.84l13.18-33.76c1-2.57-0.27-5.47-2.84-6.48h0
					c-2.57-1-5.47,0.27-6.48,2.84l-13.18,33.76C75.64,401.01,76.91,403.9,79.48,404.91z"/>
			</g>
			<g>
				
					<rect x="103.05" y="349.62" transform="matrix(0.9877 -0.1561 0.1561 0.9877 -53.3029 22.7546)" class="st5" width="30.44" height="2.47"/>
				<path class="st6" d="M132.15,347.41l0.61-30.07l0,0c0.83,0.13,1.43,0.86,1.4,1.69l-1.04,28.22L132.15,347.41z"/>
			</g>
			<g>
				<path class="st31" d="M89.82,346.08L89.82,346.08c-2.38,0.59-4.84-0.66-5.77-2.93l-13.47-32.29c-1.17-2.8,0.43-5.97,3.37-6.7
					l0,0c2.37-0.59,4.81,0.64,5.75,2.89l13.5,32.35C94.35,342.2,92.75,345.36,89.82,346.08z"/>
				<g>
					
						<rect x="103.01" y="319.11" transform="matrix(0.7071 0.7071 -0.7071 0.7071 259.8649 19.4917)" class="st32" width="6.78" height="8.64"/>
					<path class="st32" d="M105.5,319.54l-0.97-0.97c-0.53-0.53-0.53-1.4,0-1.94l2.51-2.51c0.53-0.53,1.4-0.53,1.94,0l0,0
						c0.53,0.53,0.53,1.4,0,1.94L105.5,319.54z"/>
					<path class="st32" d="M108.35,325.05l-4.18-4.18l5.78-5.78l4.18,4.18c1.6,1.6,1.6,4.19,0,5.78l0,0
						C112.53,326.65,109.94,326.65,108.35,325.05z"/>
					<path class="st32" d="M109.21,317.77L109.21,317.77c-0.53-0.53-0.53-1.4,0-1.94l4.44-4.44c0.53-0.53,1.4-0.53,1.94,0l0,0
						c0.53,0.53,0.53,1.4,0,1.94l-4.44,4.44C110.61,318.3,109.74,318.3,109.21,317.77z"/>
					<path class="st33" d="M111.14,319.71L111.14,319.71c-0.53-0.53-0.53-1.4,0-1.94l1.49-1.49c0.53-0.53,1.4-0.53,1.94,0l0,0
						c0.53,0.53,0.53,1.4,0,1.94l-1.49,1.49C112.54,320.24,111.68,320.24,111.14,319.71z"/>
					<path class="st33" d="M113.08,321.64L113.08,321.64c-0.53-0.53-0.53-1.4,0-1.94l1.49-1.49c0.53-0.53,1.4-0.53,1.94,0l0,0
						c0.53,0.53,0.53,1.4,0,1.94l-1.49,1.49C114.48,322.18,113.61,322.18,113.08,321.64z"/>
					<path class="st33" d="M115.01,323.58L115.01,323.58c-0.53-0.53-0.53-1.4,0-1.94l1.49-1.49c0.53-0.53,1.4-0.53,1.94,0h0
						c0.53,0.53,0.53,1.4,0,1.94l-1.49,1.49C116.42,324.11,115.55,324.11,115.01,323.58z"/>
				</g>
				<path class="st31" d="M85.03,344.81L85.03,344.81c-1.95-1.95-1.95-5.12,0-7.07l16.98-16.98l7.07,7.07L92.1,344.81
					C90.14,346.76,86.98,346.76,85.03,344.81z"/>
				<path class="st31" d="M78.05,360.08H49.46l2.85-46.96c0.31-5.31,4.7-9.46,10.02-9.46h8.48c5.77,0,10.35,4.85,10.02,10.61
					L78.05,360.08z"/>
				<circle class="st31" cx="67.98" cy="305.17" r="6.39"/>
				<path class="st34" d="M75.19,352.28L75.19,352.28c-2.55,1.38-5.73,0.29-6.92-2.35l-15.52-34.69c-1.07-2.38-0.11-5.19,2.18-6.43
					l0,0c2.55-1.38,5.73-0.29,6.92,2.35l15.52,34.69C78.44,348.23,77.49,351.04,75.19,352.28z"/>
				<g>
					
						<rect x="97.67" y="340.78" transform="matrix(0.0895 0.996 -0.996 0.0895 435.7359 213.5671)" class="st33" width="6.78" height="8.64"/>
					<path class="st33" d="M102.87,341.53l-0.12-1.36c-0.07-0.75,0.49-1.42,1.24-1.49l3.54-0.32c0.75-0.07,1.42,0.49,1.49,1.24l0,0
						c0.07,0.75-0.49,1.42-1.24,1.49L102.87,341.53z"/>
					<path class="st33" d="M101.52,347.59l-0.53-5.89l8.15-0.73l0.53,5.89c0.2,2.25-1.46,4.24-3.71,4.44l0,0
						C103.71,351.5,101.72,349.84,101.52,347.59z"/>
					<path class="st33" d="M106.76,341.6L106.76,341.6c-0.07-0.75,0.49-1.42,1.24-1.49l2.1-0.19c0.75-0.07,1.42,0.49,1.49,1.24l0,0
						c0.07,0.75-0.49,1.42-1.24,1.49l-2.1,0.19C107.49,342.91,106.82,342.35,106.76,341.6z"/>
					<path class="st33" d="M107,344.33L107,344.33c-0.07-0.75,0.49-1.42,1.24-1.49l2.1-0.19c0.75-0.07,1.42,0.49,1.49,1.24l0,0
						c0.07,0.75-0.49,1.42-1.24,1.49l-2.1,0.19C107.73,345.64,107.07,345.08,107,344.33z"/>
					<path class="st33" d="M107.25,347.06L107.25,347.06c-0.07-0.75,0.49-1.42,1.24-1.49l2.1-0.19c0.75-0.07,1.42,0.49,1.49,1.24
						l0,0c0.07,0.75-0.49,1.42-1.24,1.49l-2.1,0.19C107.98,348.36,107.31,347.81,107.25,347.06z"/>
					<path class="st33" d="M105.83,349.93L105.83,349.93c-0.07-0.75,0.49-1.42,1.24-1.49l3.76-0.34c0.75-0.07,1.42,0.49,1.49,1.24
						l0,0c0.07,0.75-0.49,1.42-1.24,1.49l-3.76,0.34C106.57,351.24,105.9,350.68,105.83,349.93z"/>
				</g>
				<path class="st34" d="M67.88,348.32L67.88,348.32c-0.25-2.75,1.78-5.18,4.53-5.43l23.92-2.15l0.89,9.96l-23.92,2.15
					C70.56,353.09,68.13,351.07,67.88,348.32z"/>
				<g>
					<path class="st35" d="M70.39,285.35c-3.89-2.58-4.96-7.82-2.38-11.72c2.58-3.89,7.82-4.96,11.72-2.38
						c3.89,2.58,4.96,7.82,2.38,11.72C79.53,286.87,74.28,287.93,70.39,285.35z"/>
					<path class="st35" d="M60.69,269.55l9.66-1.96l4.73,23.31c1.08,5.33-2.36,10.53-7.7,11.61l0,0c-5.33,1.08-10.53-2.36-11.61-7.7
						L53,281.17C51.91,275.83,55.36,270.63,60.69,269.55z"/>
					<path class="st33" d="M68.04,309.51L68.04,309.51c-2.72-0.46-4.56-3.04-4.09-5.76l1.39-8.21l9.86,1.67l-1.39,8.21
						C73.35,308.14,70.77,309.97,68.04,309.51z"/>
					<path class="st33" d="M69.65,274.53l-10.28,2.09l5.12,25.22l10.28-2.09c5.15-1.05,8.48-6.07,7.44-11.22l-1.33-6.56
						C79.83,276.81,74.8,273.49,69.65,274.53z"/>
					<path class="st33" d="M65.92,291.89c-0.37-1.83-2.15-3.01-3.98-2.64c-1.83,0.37-3.01,2.15-2.64,3.98
						c0.37,1.83,2.15,3.01,3.98,2.64C65.1,295.51,66.29,293.72,65.92,291.89z"/>
					<path class="st35" d="M83.54,295.09l-1.33-6.56c-0.08-0.38-0.18-0.75-0.3-1.1c0.38,4.74-2.82,6.41-7.59,7.38
						c-5.68,1.15-11.22,0.19-12.37-5.49l-0.65,8.8c1.15,5.68,9.13,9.35,14.81,8.2C81.25,305.27,84.58,300.24,83.54,295.09z"/>
					<path class="st21" d="M74.4,297.96L74.4,297.96c-1.7,0.35-3.37-0.76-3.71-2.46l-0.25-1.23l6.17-1.25l0.25,1.23
						C77.2,295.95,76.1,297.61,74.4,297.96z"/>
					<path class="st36" d="M71.71,288.46c0.13,0.63-0.28,1.25-0.91,1.38c-0.63,0.13-1.25-0.28-1.38-0.91
						c-0.13-0.63,0.28-1.25,0.91-1.38C70.97,287.42,71.58,287.83,71.71,288.46z"/>
					<path class="st36" d="M79.17,286.95c0.13,0.63-0.28,1.25-0.91,1.38c-0.63,0.13-1.25-0.28-1.38-0.91
						c-0.13-0.63,0.28-1.25,0.91-1.38C78.43,285.91,79.05,286.32,79.17,286.95z"/>
					<path class="st35" d="M71.59,287.88l-4.16-0.36c-0.38-0.03-0.66-0.36-0.62-0.74l0,0c0.03-0.38,0.36-0.66,0.74-0.62l4.16,0.36
						c0.38,0.03,0.66,0.36,0.62,0.74l0,0C72.3,287.63,71.97,287.91,71.59,287.88z"/>
					<path class="st35" d="M79.73,285.55l-3.84,1.63c-0.35,0.15-0.75-0.01-0.9-0.36l0,0c-0.15-0.35,0.01-0.75,0.36-0.9l3.84-1.63
						c0.35-0.15,0.75,0.01,0.9,0.36l0,0C80.24,285,80.08,285.4,79.73,285.55z"/>
					
						<rect x="62.31" y="286.4" transform="matrix(0.98 -0.1988 0.1988 0.98 -56.5988 18.3581)" class="st35" width="1.63" height="9.28"/>
					<path class="st35" d="M76.91,294.24l-6.34,1.29c-0.57,0.12-1.13-0.25-1.25-0.83l0,0c-0.12-0.57,0.25-1.13,0.83-1.25l6.34-1.29
						c0.57-0.12,1.13,0.25,1.25,0.83l0,0C77.85,293.56,77.48,294.12,76.91,294.24z"/>
					<path class="st35" d="M64.37,276.61c-0.84-4.14,1.84-8.18,5.98-9.02c4.14-0.84,8.18,1.84,9.02,5.98
						c0.84,4.14-1.84,8.18-5.98,9.02C69.25,283.43,65.21,280.76,64.37,276.61z"/>
					
						<ellipse transform="matrix(0.8827 -0.47 0.47 0.8827 -124.677 61.1488)" class="st35" cx="60.13" cy="280.27" rx="6.75" ry="6.75"/>
					<path class="st35" d="M59.25,287.47c-0.25-1.23,0.55-2.44,1.78-2.69c1.23-0.25,2.44,0.55,2.69,1.78
						c0.25,1.23-0.55,2.44-1.78,2.69C60.7,289.51,59.5,288.71,59.25,287.47z"/>
					<path class="st35" d="M76.66,266.34l-12.66,2.53c-1.8,0.36-2.97,2.11-2.61,3.92l0,0c0.36,1.8,2.11,2.97,3.92,2.61l12.66-2.53
						c1.8-0.36,2.97-2.11,2.61-3.92l0,0C80.21,267.15,78.46,265.98,76.66,266.34z"/>
				</g>
			</g>
		</g>
		<g>
			<rect x="441.4" y="240.8" class="st3" width="4.69" height="139.39"/>
			<path class="st4" d="M456.61,201.41c-14.8,49.3-21.56,98.8-20.54,150.25c-2.3,0.08-3.45,0.12-5.75,0.2
				c-1.03-52.12,5.82-102.24,20.81-152.18C453.32,200.38,454.41,200.72,456.61,201.41z"/>
			<path class="st3" d="M453.88,200.55c-0.83-0.26-1.66-0.52-2.76-0.87c-14.99,49.94-21.84,100.06-20.81,152.18
				c1.16-0.04,2.03-0.07,2.9-0.1C432.23,299.99,439.04,250.18,453.88,200.55z"/>
			<path class="st6" d="M454.89,172.19c-24.55,67.04-33.98,135.99-28.33,207.17c0.15,1.61,1.54,2.79,3.08,2.63l0,0
				c1.55-0.15,2.67-1.57,2.52-3.16c-5.53-70.38,3.76-138.32,27.98-204.63c0.57-1.49-0.13-3.15-1.58-3.72l0,0
				C457.12,169.92,455.47,170.68,454.89,172.19z"/>
			<path class="st5" d="M429.85,381.95c1.44-0.25,2.47-1.6,2.33-3.12c-5.53-70.38,3.76-138.32,27.98-204.63
				c0.54-1.43-0.08-3-1.4-3.63C435.31,239.19,425.69,309.56,429.85,381.95z"/>
			
				<rect x="441.91" y="377.96" transform="matrix(-1 -1.224647e-16 1.224647e-16 -1 887.4977 795.9182)" class="st3" width="3.68" height="40"/>
			<polygon class="st4" points="441.91,377.96 445.59,377.96 436.07,417.96 432.39,417.96 			"/>
			<polygon class="st4" points="445.59,377.96 441.91,377.96 451.42,417.96 455.1,417.96 			"/>
			
				<rect x="438.43" y="377.96" transform="matrix(-1 -1.224647e-16 1.224647e-16 -1 887.4977 760.3772)" class="st4" width="10.63" height="4.46"/>
			
				<rect x="438.43" y="381.3" transform="matrix(-1 -1.224647e-16 1.224647e-16 -1 887.4977 763.7215)" class="st3" width="10.63" height="1.11"/>
			<path class="st4" d="M430.39,418.57h26.71c0.95,0,1.73-0.77,1.73-1.73l0,0c0-0.95-0.77-1.73-1.73-1.73h-26.71
				c-0.95,0-1.73,0.77-1.73,1.73l0,0C428.67,417.79,429.44,418.57,430.39,418.57z"/>
		</g>
		<g>
			<path class="st37" d="M320.37,302.33L320.37,302.33c1.83,1.64,4.58,1.69,6.47,0.12l27.04-22.19c2.34-1.92,2.42-5.48,0.17-7.5l0,0
				c-1.82-1.63-4.55-1.69-6.43-0.14l-27.1,22.23C318.19,296.77,318.13,300.31,320.37,302.33z"/>
			<g>
				
					<rect x="297.92" y="276.83" transform="matrix(-0.6156 0.7881 -0.7881 -0.6156 708.3613 216.7757)" class="st32" width="6.78" height="8.64"/>
				<path class="st32" d="M301.73,277.18l0.84-1.08c0.47-0.6,0.36-1.46-0.24-1.92l-2.8-2.19c-0.6-0.47-1.46-0.36-1.92,0.24l0,0
					c-0.47,0.6-0.36,1.46,0.24,1.92L301.73,277.18z"/>
				<path class="st32" d="M299.58,282.99l3.64-4.66l-6.45-5.03l-3.64,4.66c-1.39,1.78-1.07,4.35,0.71,5.74l0,0
					C295.62,285.09,298.19,284.77,299.58,282.99z"/>
				<path class="st32" d="M297.84,275.87L297.84,275.87c0.47-0.6,0.36-1.46-0.24-1.92l-4.94-3.86c-0.6-0.47-1.46-0.36-1.92,0.24l0,0
					c-0.47,0.6-0.36,1.46,0.24,1.92l4.94,3.86C296.51,276.57,297.37,276.47,297.84,275.87z"/>
				<path class="st33" d="M296.15,278.03L296.15,278.03c0.47-0.6,0.36-1.46-0.24-1.92l-1.66-1.3c-0.6-0.47-1.46-0.36-1.92,0.24l0,0
					c-0.47,0.6-0.36,1.46,0.24,1.92l1.66,1.3C294.83,278.73,295.69,278.63,296.15,278.03z"/>
				<path class="st33" d="M294.47,280.19L294.47,280.19c0.47-0.6,0.36-1.46-0.24-1.92l-1.66-1.3c-0.6-0.47-1.46-0.36-1.92,0.24l0,0
					c-0.47,0.6-0.36,1.46,0.24,1.92l1.66,1.3C293.14,280.89,294,280.78,294.47,280.19z"/>
				<path class="st33" d="M292.78,282.35L292.78,282.35c0.47-0.6,0.36-1.46-0.24-1.92l-1.66-1.3c-0.6-0.47-1.46-0.36-1.92,0.24l0,0
					c-0.47,0.6-0.36,1.46,0.24,1.92l1.66,1.3C291.46,283.05,292.32,282.94,292.78,282.35z"/>
			</g>
			<path class="st37" d="M327.58,301.67L327.58,301.67c1.7-2.18,1.31-5.32-0.86-7.02l-18.93-14.78l-6.16,7.88l18.93,14.78
				C322.74,304.23,325.88,303.85,327.58,301.67z"/>
			<path class="st38" d="M374.73,332.93c0.52,9.06-6.33,16.82-15.3,17.34c-8.97,0.51-16.66-6.42-17.17-15.48
				c-0.52-9.06,6.33-16.82,15.3-17.34S374.21,323.87,374.73,332.93z"/>
			<path class="st37" d="M342.25,334.78l32.47-1.85l-2.85-52.67c-0.31-5.31-4.7-9.46-10.02-9.46h-8.48
				c-5.77,0-10.35,4.85-10.02,10.61L342.25,334.78z"/>
			<path class="st39" d="M374.73,332.93c-0.1-1.9-2.85-52.67-2.85-52.67l-4.17-1.77L374.73,332.93z"/>
			<path class="st8" d="M351.86,418.57L351.86,418.57c0-5.31-4.65-9.42-9.92-8.76l-8.87,1.11c-3.86,0.48-6.75,3.76-6.75,7.65l0,0
				H351.86z"/>
			<path class="st38" d="M344.15,413.96L344.15,413.96c-2.95,0-5.3-2.45-5.18-5.4l3.28-73.78l16.24-0.93l-9.19,75.56
				C348.97,412.01,346.77,413.96,344.15,413.96z"/>
			<path class="st8" d="M365.88,418.57L365.88,418.57c0-5.31,4.65-9.42,9.92-8.76l8.87,1.11c3.86,0.48,6.75,3.76,6.75,7.65l0,0
				H365.88z"/>
			<path class="st40" d="M374.73,413.73L374.73,413.73c-2.67,0.15-5.04-1.71-5.53-4.34l-11.85-75.46l17.38-0.99l5,75.19
				C379.89,411.05,377.66,413.56,374.73,413.73z"/>
			<path class="st37" d="M394.96,302.41L394.96,302.41c-1.83,1.64-4.58,1.69-6.47,0.12l-27.04-22.19c-2.34-1.92-2.42-5.48-0.17-7.5
				l0,0c1.82-1.63,4.55-1.69,6.43-0.14l27.1,22.23C397.14,296.85,397.21,300.39,394.96,302.41z"/>
			<polygon class="st21" points="354.24,277.81 352.53,334.2 362.15,333.65 357.1,277.95 			"/>
			<circle class="st21" cx="355.69" cy="273.49" r="5.94"/>
			<g>
				
					<rect x="410.63" y="276.91" transform="matrix(0.6156 0.7881 -0.7881 0.6156 380.7693 -218.1675)" class="st32" width="6.78" height="8.64"/>
				<path class="st32" d="M413.6,277.25l-0.84-1.08c-0.47-0.6-0.36-1.46,0.24-1.92l2.8-2.19c0.6-0.47,1.46-0.36,1.92,0.24l0,0
					c0.47,0.6,0.36,1.46-0.24,1.92L413.6,277.25z"/>
				<path class="st32" d="M415.75,283.07l-3.64-4.66l6.45-5.03l3.64,4.66c1.39,1.78,1.07,4.35-0.71,5.74l0,0
					C419.71,285.17,417.14,284.85,415.75,283.07z"/>
				<path class="st32" d="M417.49,275.95L417.49,275.95c-0.47-0.6-0.36-1.46,0.24-1.92l4.94-3.86c0.6-0.47,1.46-0.36,1.92,0.24l0,0
					c0.47,0.6,0.36,1.46-0.24,1.92l-4.94,3.86C418.82,276.65,417.96,276.55,417.49,275.95z"/>
				<path class="st33" d="M419.18,278.11L419.18,278.11c-0.47-0.6-0.36-1.46,0.24-1.92l1.66-1.3c0.6-0.47,1.46-0.36,1.92,0.24l0,0
					c0.47,0.6,0.36,1.46-0.24,1.92l-1.66,1.3C420.5,278.81,419.64,278.71,419.18,278.11z"/>
				<path class="st33" d="M420.86,280.27L420.86,280.27c-0.47-0.6-0.36-1.46,0.24-1.92l1.66-1.3c0.6-0.47,1.46-0.36,1.92,0.24l0,0
					c0.47,0.6,0.36,1.46-0.24,1.92l-1.66,1.3C422.19,280.97,421.33,280.86,420.86,280.27z"/>
				<path class="st33" d="M422.55,282.43L422.55,282.43c-0.47-0.6-0.36-1.46,0.24-1.92l1.66-1.3c0.6-0.47,1.46-0.36,1.92,0.24l0,0
					c0.47,0.6,0.36,1.46-0.24,1.92l-1.66,1.3C423.87,283.13,423.01,283.02,422.55,282.43z"/>
			</g>
			<path class="st37" d="M387.75,301.75L387.75,301.75c-1.7-2.18-1.31-5.32,0.86-7.02l18.93-14.78l6.16,7.88l-18.93,14.78
				C392.59,304.31,389.45,303.93,387.75,301.75z"/>
			<path class="st41" d="M357.22,279.23c-0.19,1.35,4.22,54.46,4.22,54.46l0.71-0.04L357.22,279.23z"/>
			<path class="st41" d="M354.19,279.43c0.19,1.35,0.45,54.66,0.45,54.66l-2.1,0.11L354.19,279.43z"/>
			<path class="st37" d="M374.71,332.95c0.27,1.84-2.32,3.49-5.79,3.68c-3.47,0.19-6.5-1.14-6.77-2.98
				c-0.27-1.84,2.32-3.49,5.79-3.68C371.41,329.77,374.44,331.11,374.71,332.95z"/>
			<path class="st37" d="M352.52,334.24c0.22,1.47-1.89,2.79-4.73,2.95c-2.83,0.16-5.31-0.91-5.53-2.39
				c-0.22-1.47,1.89-2.79,4.73-2.95C349.83,331.7,352.3,332.77,352.52,334.24z"/>
			<g>
				<path class="st32" d="M353.62,240.66l-4.49,0.26l1.78,30.24h0c7.81-0.46,13.77-7.16,13.31-14.97l-0.38-6.45
					C363.52,244.42,358.95,240.35,353.62,240.66z"/>
				<path class="st33" d="M355.91,277.37L355.91,277.37c2.76-0.16,4.86-2.53,4.7-5.28l-0.49-8.32l-9.98,0.59l0.49,8.32
					C350.78,275.43,353.15,277.53,355.91,277.37z"/>
				<path class="st33" d="M348.75,240.93L348.75,240.93c5.52-0.32,10.25,3.88,10.58,9.4l1.2,20.47l-9.99,0.59
					c-5.52,0.32-10.25-3.88-10.58-9.4l-0.62-10.48C339.02,245.99,343.23,241.25,348.75,240.93z"/>
				<path class="st33" d="M356.42,258.58c-0.11-1.86,1.31-3.46,3.18-3.57c1.86-0.11,3.46,1.31,3.57,3.18
					c0.11,1.86-1.31,3.46-3.18,3.57C358.13,261.87,356.53,260.45,356.42,258.58z"/>
				<path class="st15" d="M348.64,267.34L348.64,267.34c1.74-0.1,3.06-1.59,2.96-3.33l-0.07-1.26l-6.29,0.37l0.07,1.26
					C345.41,266.12,346.9,267.44,348.64,267.34z"/>
				<path class="st3" d="M350.62,256.84c0,0.65,0.51,1.17,1.16,1.18c0.65,0,1.17-0.51,1.18-1.16c0-0.65-0.51-1.17-1.16-1.18
					C351.15,255.67,350.63,256.19,350.62,256.84z"/>
				<path class="st3" d="M343.01,256.78c0,0.65,0.51,1.17,1.16,1.18c0.65,0,1.17-0.51,1.18-1.16s-0.51-1.17-1.16-1.18
					S343.01,256.14,343.01,256.78z"/>
				<path class="st25" d="M350.07,254.24l4.17,0.22c0.38,0.02,0.7-0.27,0.72-0.65l0,0c0.02-0.38-0.27-0.7-0.65-0.72l-4.17-0.22
					c-0.38-0.02-0.7,0.27-0.72,0.65l0,0C349.4,253.9,349.69,254.22,350.07,254.24z"/>
				<path class="st25" d="M342,254.93l4.12-0.7c0.37-0.06,0.62-0.42,0.56-0.79v0c-0.06-0.37-0.42-0.62-0.79-0.56l-4.12,0.7
					c-0.37,0.06-0.62,0.42-0.56,0.79l0,0C341.27,254.74,341.62,254.99,342,254.93z"/>
			</g>
		</g>
	</g>
	<g>
		<path class="st42" d="M400.04,217.53c0,17.4-14.1,31.5-31.5,31.5"/>
		<path class="st42" d="M371.44,201.81c-17.4,0-31.5-14.1-31.5-31.5"/>
		<path class="st42" d="M104.16,228.51c-17.4,0-31.5,14.1-31.5,31.5"/>
		<path class="st42" d="M227.41,248.87c-12.3-12.3-32.25-12.3-44.55,0"/>
		<path class="st42" d="M125.8,205.87c12.3-12.3,12.3-32.25,0-44.55"/>
		<path class="st42" d="M263.74,187.08c0,17.4-14.1,31.5-31.5,31.5"/>
		<g>
			<polygon class="st43" points="266.42,144.39 250.61,144.39 250.61,177.08 276.86,177.08 276.86,154.83 			"/>
			<polygon class="st43" points="276.86,154.83 266.42,154.83 266.42,144.39 			"/>
			<line class="st43" x1="257.05" y1="159.57" x2="270.42" y2="159.57"/>
			<line class="st43" x1="257.05" y1="164.24" x2="270.42" y2="164.24"/>
			<line class="st43" x1="257.05" y1="168.91" x2="270.42" y2="168.91"/>
		</g>
		<g>
			<polyline class="st44" points="324.37,136.4 324.37,159.75 355.51,159.75 			"/>
			<g>
				<g>
					<polyline class="st45" points="329.09,154.74 338.34,145.5 342.34,149.5 349.58,142.25 					"/>
					<g>
						<polygon class="st46" points="351.45,145.67 353.39,138.45 346.16,140.38 						"/>
					</g>
				</g>
			</g>
		</g>
		<g>
			<polyline class="st44" points="396.07,198.38 386.1,194.3 415.08,177.59 410.62,204.32 402.84,201.14 			"/>
			<polygon class="st44" points="408.45,185.48 400.23,200.08 402.84,201.14 397.23,209.13 396.07,198.38 			"/>
		</g>
		<g>
			<polyline class="st43" points="216.72,206.48 193.55,206.48 193.55,229.65 216.72,229.65 216.72,217.07 			"/>
			<polyline class="st43" points="197.5,215.73 205.13,223.36 221.84,206.65 			"/>
		</g>
		<g>
			
				<ellipse transform="matrix(0.9677 -0.2522 0.2522 0.9677 -53.5693 39.1193)" class="st43" cx="125.8" cy="228.51" rx="12.25" ry="12.25"/>
			<polyline class="st43" points="125.8,219.75 125.8,228.51 120.81,228.51 			"/>
		</g>
		<g>
			<rect x="81.97" y="141" class="st43" width="30.45" height="23.49"/>
			<polyline class="st47" points="81.97,141 97.2,155.67 112.42,141 			"/>
		</g>
		<path class="st43" d="M223.17,159.57c0-2.31-1.87-4.18-4.18-4.18c-2.31,0-4.18,1.87-4.18,4.18c0,2.31,1.87,4.18,4.18,4.18
			C221.3,163.75,223.17,161.88,223.17,159.57z"/>
		<circle class="st43" cx="326.19" cy="235.64" r="4.18"/>
		<circle class="st43" cx="226.26" cy="152.29" r="2.27"/>
		<circle class="st43" cx="132.42" cy="121" r="4.18"/>
		<circle class="st43" cx="139.7" cy="113.72" r="2.27"/>
		<circle class="st43" cx="318.41" cy="229.19" r="2.27"/>
		<circle class="st43" cx="48" cy="235.64" r="4.18"/>
		<path class="st43" d="M55.08,215.68c0-0.94-0.76-1.7-1.7-1.7c-0.94,0-1.7,0.76-1.7,1.7c0,0.94,0.76,1.7,1.7,1.7
			C54.32,217.38,55.08,216.62,55.08,215.68z"/>
		<circle class="st43" cx="132.42" cy="106" r="1.7"/>
		<circle class="st43" cx="40.22" cy="229.65" r="2.27"/>
		<circle class="st43" cx="384.44" cy="108.42" r="4.18"/>
		<circle class="st43" cx="384.44" cy="118.71" r="2.27"/>
		<circle class="st43" cx="395.04" cy="125.63" r="1.7"/>
	</g>
</g>
<g id="DESIGNED_BY_FREEPIK">
</g>
</svg>
